<mxfile host="app.diagrams.net" modified="2022-03-30T13:34:30.026Z" agent="5.0 (Windows NT 10.0; Win64; x64) AppleWebKit/537.36 (KHTML, like Gecko) Chrome/99.0.4844.84 Safari/537.36" etag="Vro1NKcc7SCna2tox8z0" version="17.2.4" type="github">
  <diagram id="UQAobm9ets7YVORpFiId" name="Page-1">
    <mxGraphModel dx="1598" dy="724" grid="1" gridSize="10" guides="1" tooltips="1" connect="1" arrows="1" fold="1" page="1" pageScale="1" pageWidth="850" pageHeight="1100" math="0" shadow="0">
      <root>
        <mxCell id="0" />
        <mxCell id="1" parent="0" />
        <mxCell id="yNYRJrpEzRyKBh-r8Ov4-1" value="&lt;font style=&quot;font-size: 24px&quot;&gt;cart_product=[ ]&lt;/font&gt;" style="text;html=1;align=center;verticalAlign=middle;resizable=0;points=[];autosize=1;strokeColor=none;fillColor=none;" vertex="1" parent="1">
          <mxGeometry x="390" y="20" width="180" height="20" as="geometry" />
        </mxCell>
        <mxCell id="yNYRJrpEzRyKBh-r8Ov4-2" value="0" style="text;html=1;align=center;verticalAlign=middle;resizable=0;points=[];autosize=1;strokeColor=none;fillColor=none;fontSize=24;" vertex="1" parent="1">
          <mxGeometry x="630" y="20" width="30" height="30" as="geometry" />
        </mxCell>
        <mxCell id="yNYRJrpEzRyKBh-r8Ov4-3" value="Nav-bar" style="text;html=1;align=center;verticalAlign=middle;resizable=0;points=[];autosize=1;strokeColor=none;fillColor=none;fontSize=24;" vertex="1" parent="1">
          <mxGeometry x="40" y="95" width="100" height="30" as="geometry" />
        </mxCell>
        <mxCell id="yNYRJrpEzRyKBh-r8Ov4-4" value="" style="endArrow=classic;html=1;rounded=0;fontSize=24;exitX=0.222;exitY=1.5;exitDx=0;exitDy=0;exitPerimeter=0;entryX=1.028;entryY=0.613;entryDx=0;entryDy=0;entryPerimeter=0;" edge="1" parent="1" source="yNYRJrpEzRyKBh-r8Ov4-1" target="yNYRJrpEzRyKBh-r8Ov4-3">
          <mxGeometry width="50" height="50" relative="1" as="geometry">
            <mxPoint x="140" y="110" as="sourcePoint" />
            <mxPoint x="40" y="310" as="targetPoint" />
          </mxGeometry>
        </mxCell>
        <mxCell id="yNYRJrpEzRyKBh-r8Ov4-5" value="Cart(0)" style="text;html=1;align=center;verticalAlign=middle;resizable=0;points=[];autosize=1;strokeColor=none;fillColor=none;fontSize=24;" vertex="1" parent="1">
          <mxGeometry x="50" y="140" width="90" height="30" as="geometry" />
        </mxCell>
        <mxCell id="yNYRJrpEzRyKBh-r8Ov4-6" value="product-component" style="text;html=1;align=center;verticalAlign=middle;resizable=0;points=[];autosize=1;strokeColor=none;fillColor=none;fontSize=24;" vertex="1" parent="1">
          <mxGeometry x="140" y="300" width="220" height="30" as="geometry" />
        </mxCell>
        <mxCell id="yNYRJrpEzRyKBh-r8Ov4-7" value="product-description-component" style="text;html=1;align=center;verticalAlign=middle;resizable=0;points=[];autosize=1;strokeColor=none;fillColor=none;fontSize=24;" vertex="1" parent="1">
          <mxGeometry x="445" y="300" width="350" height="30" as="geometry" />
        </mxCell>
        <mxCell id="yNYRJrpEzRyKBh-r8Ov4-8" value="" style="endArrow=classic;html=1;rounded=0;fontSize=24;exitX=0.529;exitY=-0.333;exitDx=0;exitDy=0;exitPerimeter=0;" edge="1" parent="1" source="yNYRJrpEzRyKBh-r8Ov4-7">
          <mxGeometry width="50" height="50" relative="1" as="geometry">
            <mxPoint x="550" y="290" as="sourcePoint" />
            <mxPoint x="500" y="60" as="targetPoint" />
          </mxGeometry>
        </mxCell>
        <mxCell id="yNYRJrpEzRyKBh-r8Ov4-9" value="" style="endArrow=classic;html=1;rounded=0;fontSize=24;" edge="1" parent="1">
          <mxGeometry width="50" height="50" relative="1" as="geometry">
            <mxPoint x="260" y="300" as="sourcePoint" />
            <mxPoint x="470" y="60" as="targetPoint" />
          </mxGeometry>
        </mxCell>
        <mxCell id="yNYRJrpEzRyKBh-r8Ov4-10" value="add-to-cart" style="text;html=1;align=center;verticalAlign=middle;resizable=0;points=[];autosize=1;strokeColor=none;fillColor=none;fontSize=24;" vertex="1" parent="1">
          <mxGeometry x="195" y="345" width="130" height="30" as="geometry" />
        </mxCell>
        <mxCell id="yNYRJrpEzRyKBh-r8Ov4-11" value="update&amp;nbsp;" style="text;html=1;align=center;verticalAlign=middle;resizable=0;points=[];autosize=1;strokeColor=none;fillColor=none;fontSize=24;" vertex="1" parent="1">
          <mxGeometry x="260" y="175" width="100" height="30" as="geometry" />
        </mxCell>
        <mxCell id="yNYRJrpEzRyKBh-r8Ov4-12" value="update&amp;nbsp;" style="text;html=1;align=center;verticalAlign=middle;resizable=0;points=[];autosize=1;strokeColor=none;fillColor=none;fontSize=24;" vertex="1" parent="1">
          <mxGeometry x="480" y="175" width="100" height="30" as="geometry" />
        </mxCell>
        <mxCell id="yNYRJrpEzRyKBh-r8Ov4-13" value="subscribe" style="text;html=1;align=center;verticalAlign=middle;resizable=0;points=[];autosize=1;strokeColor=none;fillColor=none;fontSize=24;" vertex="1" parent="1">
          <mxGeometry x="180" y="55" width="120" height="30" as="geometry" />
        </mxCell>
        <mxCell id="yNYRJrpEzRyKBh-r8Ov4-14" value="RxJs" style="text;html=1;align=center;verticalAlign=middle;resizable=0;points=[];autosize=1;strokeColor=none;fillColor=none;fontSize=24;fontStyle=1" vertex="1" parent="1">
          <mxGeometry x="930" y="25" width="70" height="30" as="geometry" />
        </mxCell>
        <mxCell id="yNYRJrpEzRyKBh-r8Ov4-15" value="BehaviorSubject" style="text;html=1;align=center;verticalAlign=middle;resizable=0;points=[];autosize=1;strokeColor=none;fillColor=none;fontSize=24;" vertex="1" parent="1">
          <mxGeometry x="550" y="40" width="190" height="30" as="geometry" />
        </mxCell>
        <mxCell id="yNYRJrpEzRyKBh-r8Ov4-16" value="" style="endArrow=none;html=1;rounded=0;fontSize=24;" edge="1" parent="1">
          <mxGeometry width="50" height="50" relative="1" as="geometry">
            <mxPoint x="530" y="440" as="sourcePoint" />
            <mxPoint x="900" y="440" as="targetPoint" />
          </mxGeometry>
        </mxCell>
        <mxCell id="yNYRJrpEzRyKBh-r8Ov4-17" value="" style="endArrow=none;html=1;rounded=0;fontSize=24;" edge="1" parent="1">
          <mxGeometry width="50" height="50" relative="1" as="geometry">
            <mxPoint x="530" y="480" as="sourcePoint" />
            <mxPoint x="910" y="480" as="targetPoint" />
          </mxGeometry>
        </mxCell>
        <mxCell id="yNYRJrpEzRyKBh-r8Ov4-18" value="stream: Observable" style="text;html=1;align=center;verticalAlign=middle;resizable=0;points=[];autosize=1;strokeColor=none;fillColor=none;fontSize=24;" vertex="1" parent="1">
          <mxGeometry x="580" y="440" width="230" height="30" as="geometry" />
        </mxCell>
        <mxCell id="yNYRJrpEzRyKBh-r8Ov4-19" value="Session Management" style="text;html=1;align=center;verticalAlign=middle;resizable=0;points=[];autosize=1;strokeColor=none;fillColor=none;fontSize=24;" vertex="1" parent="1">
          <mxGeometry x="405" y="590" width="250" height="30" as="geometry" />
        </mxCell>
        <mxCell id="yNYRJrpEzRyKBh-r8Ov4-20" value="&lt;span style=&quot;white-space: pre&quot;&gt;	&lt;/span&gt;&lt;span style=&quot;white-space: pre&quot;&gt;	&lt;/span&gt;Customer Login" style="html=1;shadow=0;dashed=0;shape=mxgraph.bootstrap.rrect;rSize=5;html=1;strokeColor=#C8C8C8;fillColor=#ffffff;whiteSpace=wrap;verticalAlign=top;align=left;fontSize=18;spacing=15;spacingTop=-5;" vertex="1" parent="1">
          <mxGeometry x="100" y="630" width="400" height="370" as="geometry" />
        </mxCell>
        <mxCell id="yNYRJrpEzRyKBh-r8Ov4-21" value="" style="shape=line;strokeColor=#dddddd;resizeWidth=1;fontSize=24;" vertex="1" parent="yNYRJrpEzRyKBh-r8Ov4-20">
          <mxGeometry width="400" height="10" relative="1" as="geometry">
            <mxPoint y="50" as="offset" />
          </mxGeometry>
        </mxCell>
        <mxCell id="yNYRJrpEzRyKBh-r8Ov4-22" value="" style="html=1;shadow=0;dashed=0;shape=mxgraph.bootstrap.x;strokeColor=#868686;strokeWidth=2;fontSize=24;" vertex="1" parent="yNYRJrpEzRyKBh-r8Ov4-20">
          <mxGeometry x="1" width="8" height="8" relative="1" as="geometry">
            <mxPoint x="-24" y="20" as="offset" />
          </mxGeometry>
        </mxCell>
        <mxCell id="yNYRJrpEzRyKBh-r8Ov4-23" value="Username:" style="strokeColor=none;fillColor=none;resizeWidth=1;align=left;verticalAlign=top;spacing=10;fontSize=14;whiteSpace=wrap;html=1;" vertex="1" parent="yNYRJrpEzRyKBh-r8Ov4-20">
          <mxGeometry width="400" height="40" relative="1" as="geometry">
            <mxPoint y="60" as="offset" />
          </mxGeometry>
        </mxCell>
        <mxCell id="yNYRJrpEzRyKBh-r8Ov4-24" value="Enter your Username" style="html=1;shadow=0;dashed=0;shape=mxgraph.bootstrap.rrect;rSize=5;strokeColor=#CED4DA;fillColor=none;align=left;verticalAlign=middle;spacing=10;fontSize=14;whiteSpace=wrap;html=1;" vertex="1" parent="yNYRJrpEzRyKBh-r8Ov4-20">
          <mxGeometry width="380" height="40" relative="1" as="geometry">
            <mxPoint x="10" y="100" as="offset" />
          </mxGeometry>
        </mxCell>
        <mxCell id="yNYRJrpEzRyKBh-r8Ov4-25" value="Password" style="strokeColor=none;fillColor=none;resizeWidth=1;align=left;verticalAlign=top;spacing=10;fontSize=14;whiteSpace=wrap;html=1;" vertex="1" parent="yNYRJrpEzRyKBh-r8Ov4-20">
          <mxGeometry width="400" height="40" relative="1" as="geometry">
            <mxPoint y="160" as="offset" />
          </mxGeometry>
        </mxCell>
        <mxCell id="yNYRJrpEzRyKBh-r8Ov4-27" value="" style="shape=line;strokeColor=#dddddd;resizeWidth=1;fontSize=24;" vertex="1" parent="yNYRJrpEzRyKBh-r8Ov4-20">
          <mxGeometry width="400" height="10" relative="1" as="geometry">
            <mxPoint y="290" as="offset" />
          </mxGeometry>
        </mxCell>
        <mxCell id="yNYRJrpEzRyKBh-r8Ov4-28" value="LOGIN" style="html=1;shadow=0;dashed=0;shape=mxgraph.bootstrap.rrect;rSize=5;fillColor=#0085FC;strokeColor=none;fontColor=#FFFFFF;fontSize=14;" vertex="1" parent="yNYRJrpEzRyKBh-r8Ov4-20">
          <mxGeometry x="1" y="1" width="110" height="40" relative="1" as="geometry">
            <mxPoint x="-390" y="-120" as="offset" />
          </mxGeometry>
        </mxCell>
        <mxCell id="yNYRJrpEzRyKBh-r8Ov4-30" value="Enter your Password" style="html=1;shadow=0;dashed=0;shape=mxgraph.bootstrap.rrect;rSize=5;strokeColor=#CED4DA;fillColor=none;align=left;verticalAlign=middle;spacing=10;fontSize=14;whiteSpace=wrap;html=1;" vertex="1" parent="yNYRJrpEzRyKBh-r8Ov4-20">
          <mxGeometry x="10" y="200" width="380" height="40" as="geometry" />
        </mxCell>
        <mxCell id="yNYRJrpEzRyKBh-r8Ov4-31" value="&lt;u&gt;Sign Up&lt;/u&gt;" style="text;html=1;align=center;verticalAlign=middle;resizable=0;points=[];autosize=1;strokeColor=none;fillColor=none;fontSize=24;" vertex="1" parent="yNYRJrpEzRyKBh-r8Ov4-20">
          <mxGeometry x="10" y="315" width="100" height="30" as="geometry" />
        </mxCell>
        <mxCell id="yNYRJrpEzRyKBh-r8Ov4-32" value="" style="endArrow=classic;html=1;rounded=0;fontSize=24;" edge="1" parent="yNYRJrpEzRyKBh-r8Ov4-20">
          <mxGeometry width="50" height="50" relative="1" as="geometry">
            <mxPoint x="130" y="260" as="sourcePoint" />
            <mxPoint x="620" y="40" as="targetPoint" />
          </mxGeometry>
        </mxCell>
        <mxCell id="yNYRJrpEzRyKBh-r8Ov4-33" value="" style="endArrow=classic;html=1;rounded=0;fontSize=24;exitX=0.784;exitY=1.267;exitDx=0;exitDy=0;exitPerimeter=0;" edge="1" parent="yNYRJrpEzRyKBh-r8Ov4-20" source="yNYRJrpEzRyKBh-r8Ov4-31">
          <mxGeometry width="50" height="50" relative="1" as="geometry">
            <mxPoint x="110" y="340" as="sourcePoint" />
            <mxPoint x="100" y="460" as="targetPoint" />
          </mxGeometry>
        </mxCell>
        <mxCell id="yNYRJrpEzRyKBh-r8Ov4-34" value="&lt;u&gt;Forgot Password?&lt;/u&gt;" style="text;html=1;align=center;verticalAlign=middle;resizable=0;points=[];autosize=1;strokeColor=none;fillColor=none;fontSize=24;" vertex="1" parent="yNYRJrpEzRyKBh-r8Ov4-20">
          <mxGeometry x="185" y="315" width="210" height="30" as="geometry" />
        </mxCell>
        <mxCell id="yNYRJrpEzRyKBh-r8Ov4-35" value="" style="endArrow=classic;html=1;rounded=0;fontSize=24;" edge="1" parent="yNYRJrpEzRyKBh-r8Ov4-20">
          <mxGeometry width="50" height="50" relative="1" as="geometry">
            <mxPoint x="320" y="355" as="sourcePoint" />
            <mxPoint x="750" y="460" as="targetPoint" />
          </mxGeometry>
        </mxCell>
        <mxCell id="yNYRJrpEzRyKBh-r8Ov4-36" value="id=login" style="text;html=1;align=center;verticalAlign=middle;resizable=0;points=[];autosize=1;strokeColor=none;fillColor=none;fontSize=24;" vertex="1" parent="1">
          <mxGeometry x="520" y="695" width="100" height="30" as="geometry" />
        </mxCell>
        <mxCell id="yNYRJrpEzRyKBh-r8Ov4-37" value="id=sign-up" style="text;html=1;align=center;verticalAlign=middle;resizable=0;points=[];autosize=1;strokeColor=none;fillColor=none;fontSize=24;" vertex="1" parent="1">
          <mxGeometry x="195" y="1025" width="130" height="30" as="geometry" />
        </mxCell>
        <mxCell id="yNYRJrpEzRyKBh-r8Ov4-38" value="id=forgot-password" style="text;html=1;align=center;verticalAlign=middle;resizable=0;points=[];autosize=1;strokeColor=none;fillColor=none;fontSize=24;" vertex="1" parent="1">
          <mxGeometry x="610" y="1000" width="220" height="30" as="geometry" />
        </mxCell>
        <mxCell id="yNYRJrpEzRyKBh-r8Ov4-39" value="Step 1: Read &lt;b&gt;username/password&lt;/b&gt;" style="text;html=1;align=center;verticalAlign=middle;resizable=0;points=[];autosize=1;strokeColor=none;fillColor=none;fontSize=24;" vertex="1" parent="1">
          <mxGeometry x="740" y="610" width="390" height="30" as="geometry" />
        </mxCell>
        <mxCell id="yNYRJrpEzRyKBh-r8Ov4-40" value="Step 2: Go to DB and check if they exist?" style="text;html=1;align=center;verticalAlign=middle;resizable=0;points=[];autosize=1;strokeColor=none;fillColor=none;fontSize=24;" vertex="1" parent="1">
          <mxGeometry x="740" y="650" width="450" height="30" as="geometry" />
        </mxCell>
        <mxCell id="yNYRJrpEzRyKBh-r8Ov4-41" value="Valid?" style="rhombus;whiteSpace=wrap;html=1;fontSize=24;" vertex="1" parent="1">
          <mxGeometry x="895" y="690" width="125" height="90" as="geometry" />
        </mxCell>
        <mxCell id="yNYRJrpEzRyKBh-r8Ov4-42" value="" style="endArrow=classic;html=1;rounded=0;fontSize=24;" edge="1" parent="1">
          <mxGeometry width="50" height="50" relative="1" as="geometry">
            <mxPoint x="895" y="735" as="sourcePoint" />
            <mxPoint x="800" y="735" as="targetPoint" />
          </mxGeometry>
        </mxCell>
        <mxCell id="yNYRJrpEzRyKBh-r8Ov4-43" value="" style="endArrow=classic;html=1;rounded=0;fontSize=24;" edge="1" parent="1">
          <mxGeometry width="50" height="50" relative="1" as="geometry">
            <mxPoint x="1020" y="735" as="sourcePoint" />
            <mxPoint x="1110" y="735" as="targetPoint" />
          </mxGeometry>
        </mxCell>
        <mxCell id="yNYRJrpEzRyKBh-r8Ov4-44" value="No" style="text;html=1;align=center;verticalAlign=middle;resizable=0;points=[];autosize=1;strokeColor=none;fillColor=none;fontSize=24;" vertex="1" parent="1">
          <mxGeometry x="1040" y="705" width="50" height="30" as="geometry" />
        </mxCell>
        <mxCell id="yNYRJrpEzRyKBh-r8Ov4-45" value="pass to Login with error" style="text;html=1;align=center;verticalAlign=middle;resizable=0;points=[];autosize=1;strokeColor=none;fillColor=none;fontSize=24;" vertex="1" parent="1">
          <mxGeometry x="1120" y="705" width="270" height="30" as="geometry" />
        </mxCell>
        <mxCell id="yNYRJrpEzRyKBh-r8Ov4-46" value="Yes" style="text;html=1;align=center;verticalAlign=middle;resizable=0;points=[];autosize=1;strokeColor=none;fillColor=none;fontSize=24;" vertex="1" parent="1">
          <mxGeometry x="825" y="695" width="50" height="30" as="geometry" />
        </mxCell>
        <mxCell id="yNYRJrpEzRyKBh-r8Ov4-48" value="Step 3: Register a session&amp;nbsp;&lt;br&gt;for the User &amp;amp;&amp;nbsp;&lt;br&gt;show Dashboard" style="text;html=1;align=center;verticalAlign=middle;resizable=0;points=[];autosize=1;strokeColor=none;fillColor=none;fontSize=24;" vertex="1" parent="1">
          <mxGeometry x="610" y="745" width="300" height="90" as="geometry" />
        </mxCell>
        <mxCell id="yNYRJrpEzRyKBh-r8Ov4-50" value="[ wherever the User navigates the session will be active]" style="text;html=1;align=center;verticalAlign=middle;resizable=0;points=[];autosize=1;strokeColor=none;fillColor=none;fontSize=24;fontStyle=1" vertex="1" parent="1">
          <mxGeometry x="550" y="850" width="660" height="30" as="geometry" />
        </mxCell>
        <mxCell id="yNYRJrpEzRyKBh-r8Ov4-51" value="" style="html=1;shadow=0;dashed=0;shape=mxgraph.bootstrap.rrect;rSize=5;fillColor=#ffffff;strokeColor=#999999;fontSize=24;" vertex="1" parent="1">
          <mxGeometry x="137.5" y="1100" width="325" height="520" as="geometry" />
        </mxCell>
        <mxCell id="yNYRJrpEzRyKBh-r8Ov4-52" value="Username" style="fillColor=none;strokeColor=none;align=left;spacing=20;fontSize=14;" vertex="1" parent="yNYRJrpEzRyKBh-r8Ov4-51">
          <mxGeometry width="220" height="40" relative="1" as="geometry">
            <mxPoint x="15" y="120" as="offset" />
          </mxGeometry>
        </mxCell>
        <mxCell id="yNYRJrpEzRyKBh-r8Ov4-53" value="Enter Username" style="html=1;shadow=0;dashed=0;shape=mxgraph.bootstrap.rrect;rSize=5;fillColor=none;strokeColor=#999999;align=left;spacing=15;fontSize=14;fontColor=#6C767D;" vertex="1" parent="yNYRJrpEzRyKBh-r8Ov4-51">
          <mxGeometry width="180" height="30" relative="1" as="geometry">
            <mxPoint x="25" y="160" as="offset" />
          </mxGeometry>
        </mxCell>
        <mxCell id="yNYRJrpEzRyKBh-r8Ov4-54" value="Password" style="fillColor=none;strokeColor=none;align=left;spacing=20;fontSize=14;" vertex="1" parent="yNYRJrpEzRyKBh-r8Ov4-51">
          <mxGeometry width="220" height="40" relative="1" as="geometry">
            <mxPoint x="15" y="190" as="offset" />
          </mxGeometry>
        </mxCell>
        <mxCell id="yNYRJrpEzRyKBh-r8Ov4-55" value="Password" style="html=1;shadow=0;dashed=0;shape=mxgraph.bootstrap.rrect;rSize=5;fillColor=none;strokeColor=#999999;align=left;spacing=15;fontSize=14;fontColor=#6C767D;" vertex="1" parent="yNYRJrpEzRyKBh-r8Ov4-51">
          <mxGeometry width="180" height="30" relative="1" as="geometry">
            <mxPoint x="25" y="230" as="offset" />
          </mxGeometry>
        </mxCell>
        <mxCell id="yNYRJrpEzRyKBh-r8Ov4-56" value="Remember me" style="html=1;shadow=0;dashed=0;shape=mxgraph.bootstrap.rrect;rSize=2;fillColor=#EDEDED;strokeColor=#999999;align=left;fontSize=14;fontColor=#000000;labelPosition=right;verticalLabelPosition=middle;verticalAlign=middle;spacingLeft=5;spacingTop=-2;gradientColor=#DEDEDE;" vertex="1" parent="yNYRJrpEzRyKBh-r8Ov4-51">
          <mxGeometry width="10" height="10" relative="1" as="geometry">
            <mxPoint x="25" y="330" as="offset" />
          </mxGeometry>
        </mxCell>
        <mxCell id="yNYRJrpEzRyKBh-r8Ov4-57" value="Sign Up" style="html=1;shadow=0;dashed=0;shape=mxgraph.bootstrap.rrect;rSize=5;fillColor=#0085FC;strokeColor=none;align=center;fontSize=14;fontColor=#FFFFFF;" vertex="1" parent="yNYRJrpEzRyKBh-r8Ov4-51">
          <mxGeometry width="70" height="40" relative="1" as="geometry">
            <mxPoint x="15" y="370" as="offset" />
          </mxGeometry>
        </mxCell>
        <mxCell id="yNYRJrpEzRyKBh-r8Ov4-58" value="" style="shape=line;strokeColor=#999999;perimeter=none;resizeWidth=1;fontSize=24;" vertex="1" parent="yNYRJrpEzRyKBh-r8Ov4-51">
          <mxGeometry width="325" height="10" relative="1" as="geometry">
            <mxPoint y="420" as="offset" />
          </mxGeometry>
        </mxCell>
        <mxCell id="yNYRJrpEzRyKBh-r8Ov4-59" value="Have an Account? Login&lt;br&gt;&lt;br&gt;Forgot password?" style="html=1;fillColor=none;strokeColor=none;align=left;spacing=20;fontSize=14;" vertex="1" parent="yNYRJrpEzRyKBh-r8Ov4-51">
          <mxGeometry width="220" height="60" relative="1" as="geometry">
            <mxPoint y="450" as="offset" />
          </mxGeometry>
        </mxCell>
        <mxCell id="yNYRJrpEzRyKBh-r8Ov4-70" value="Name" style="fillColor=none;strokeColor=none;align=left;spacing=20;fontSize=14;" vertex="1" parent="yNYRJrpEzRyKBh-r8Ov4-51">
          <mxGeometry x="15" y="32.50000000000001" width="220" height="43.33333333333334" as="geometry" />
        </mxCell>
        <mxCell id="yNYRJrpEzRyKBh-r8Ov4-71" value="Enter name" style="html=1;shadow=0;dashed=0;shape=mxgraph.bootstrap.rrect;rSize=5;fillColor=none;strokeColor=#999999;align=left;spacing=15;fontSize=14;fontColor=#6C767D;" vertex="1" parent="yNYRJrpEzRyKBh-r8Ov4-51">
          <mxGeometry x="25" y="86.66666666666669" width="180" height="32.50000000000001" as="geometry" />
        </mxCell>
        <mxCell id="yNYRJrpEzRyKBh-r8Ov4-72" value="Sign-Up" style="text;html=1;align=center;verticalAlign=middle;resizable=0;points=[];autosize=1;strokeColor=none;fillColor=none;fontSize=24;" vertex="1" parent="yNYRJrpEzRyKBh-r8Ov4-51">
          <mxGeometry x="95" width="100" height="30" as="geometry" />
        </mxCell>
        <mxCell id="yNYRJrpEzRyKBh-r8Ov4-73" value="" style="endArrow=classic;html=1;rounded=0;fontSize=24;" edge="1" parent="yNYRJrpEzRyKBh-r8Ov4-51">
          <mxGeometry width="50" height="50" relative="1" as="geometry">
            <mxPoint x="95" y="357.5" as="sourcePoint" />
            <mxPoint x="405" y="281.66666666666674" as="targetPoint" />
          </mxGeometry>
        </mxCell>
        <mxCell id="yNYRJrpEzRyKBh-r8Ov4-77" value="&lt;span style=&quot;color: rgb(0 , 0 , 0) ; font-family: &amp;#34;helvetica&amp;#34; ; font-size: 14px ; font-style: normal ; font-weight: 400 ; letter-spacing: normal ; text-align: left ; text-indent: 0px ; text-transform: none ; word-spacing: 0px ; background-color: rgb(248 , 249 , 250) ; display: inline ; float: none&quot;&gt;Enter your fav color&lt;/span&gt;" style="text;whiteSpace=wrap;html=1;fontSize=24;" vertex="1" parent="yNYRJrpEzRyKBh-r8Ov4-51">
          <mxGeometry x="25" y="252" width="185" height="50" as="geometry" />
        </mxCell>
        <mxCell id="yNYRJrpEzRyKBh-r8Ov4-78" value="color" style="html=1;shadow=0;dashed=0;shape=mxgraph.bootstrap.rrect;rSize=5;fillColor=none;strokeColor=#999999;align=left;spacing=15;fontSize=14;fontColor=#6C767D;" vertex="1" parent="yNYRJrpEzRyKBh-r8Ov4-51">
          <mxGeometry x="25" y="290" width="180" height="30" as="geometry" />
        </mxCell>
        <mxCell id="yNYRJrpEzRyKBh-r8Ov4-74" value="Step 1: Read name/username/password" style="text;html=1;align=center;verticalAlign=middle;resizable=0;points=[];autosize=1;strokeColor=none;fillColor=none;fontSize=24;" vertex="1" parent="1">
          <mxGeometry x="550" y="1300" width="450" height="30" as="geometry" />
        </mxCell>
        <mxCell id="yNYRJrpEzRyKBh-r8Ov4-75" value="Step 2: Insert the record in DB" style="text;html=1;align=center;verticalAlign=middle;resizable=0;points=[];autosize=1;strokeColor=none;fillColor=none;fontSize=24;" vertex="1" parent="1">
          <mxGeometry x="552" y="1340" width="340" height="30" as="geometry" />
        </mxCell>
        <mxCell id="yNYRJrpEzRyKBh-r8Ov4-76" value="Step 3: take the user to Login" style="text;html=1;align=center;verticalAlign=middle;resizable=0;points=[];autosize=1;strokeColor=none;fillColor=none;fontSize=24;" vertex="1" parent="1">
          <mxGeometry x="552" y="1381" width="330" height="30" as="geometry" />
        </mxCell>
        <mxCell id="yNYRJrpEzRyKBh-r8Ov4-80" value="Step 1: Enter Username" style="text;html=1;align=center;verticalAlign=middle;resizable=0;points=[];autosize=1;strokeColor=none;fillColor=none;fontSize=24;" vertex="1" parent="1">
          <mxGeometry x="870" y="1055" width="270" height="30" as="geometry" />
        </mxCell>
        <mxCell id="yNYRJrpEzRyKBh-r8Ov4-81" value="Step 2: Read Username &amp;amp; ask the ans for security question." style="text;html=1;align=center;verticalAlign=middle;resizable=0;points=[];autosize=1;strokeColor=none;fillColor=none;fontSize=24;" vertex="1" parent="1">
          <mxGeometry x="870" y="1100" width="650" height="30" as="geometry" />
        </mxCell>
        <mxCell id="yNYRJrpEzRyKBh-r8Ov4-83" value="Correct?" style="rhombus;whiteSpace=wrap;html=1;fontSize=24;" vertex="1" parent="1">
          <mxGeometry x="1040" y="1140" width="130" height="110" as="geometry" />
        </mxCell>
        <mxCell id="yNYRJrpEzRyKBh-r8Ov4-84" value="" style="endArrow=classic;html=1;rounded=0;fontSize=24;" edge="1" parent="1">
          <mxGeometry width="50" height="50" relative="1" as="geometry">
            <mxPoint x="1170" y="1200" as="sourcePoint" />
            <mxPoint x="1300" y="1200" as="targetPoint" />
          </mxGeometry>
        </mxCell>
        <mxCell id="yNYRJrpEzRyKBh-r8Ov4-85" value="Yes" style="text;html=1;align=center;verticalAlign=middle;resizable=0;points=[];autosize=1;strokeColor=none;fillColor=none;fontSize=24;" vertex="1" parent="1">
          <mxGeometry x="1185" y="1155" width="50" height="30" as="geometry" />
        </mxCell>
        <mxCell id="yNYRJrpEzRyKBh-r8Ov4-86" value="" style="endArrow=classic;html=1;rounded=0;fontSize=24;exitX=0;exitY=0.5;exitDx=0;exitDy=0;" edge="1" parent="1" source="yNYRJrpEzRyKBh-r8Ov4-83">
          <mxGeometry width="50" height="50" relative="1" as="geometry">
            <mxPoint x="940" y="1180" as="sourcePoint" />
            <mxPoint x="940" y="1195" as="targetPoint" />
          </mxGeometry>
        </mxCell>
        <mxCell id="yNYRJrpEzRyKBh-r8Ov4-87" value="No" style="text;html=1;align=center;verticalAlign=middle;resizable=0;points=[];autosize=1;strokeColor=none;fillColor=none;fontSize=24;" vertex="1" parent="1">
          <mxGeometry x="970" y="1155" width="50" height="30" as="geometry" />
        </mxCell>
        <mxCell id="yNYRJrpEzRyKBh-r8Ov4-88" value="Go to Login" style="text;html=1;align=center;verticalAlign=middle;resizable=0;points=[];autosize=1;strokeColor=none;fillColor=none;fontSize=24;" vertex="1" parent="1">
          <mxGeometry x="795" y="1180" width="140" height="30" as="geometry" />
        </mxCell>
        <mxCell id="yNYRJrpEzRyKBh-r8Ov4-89" value="Go to Password Reset Screen" style="text;html=1;align=center;verticalAlign=middle;resizable=0;points=[];autosize=1;strokeColor=none;fillColor=none;fontSize=24;" vertex="1" parent="1">
          <mxGeometry x="1310" y="1180" width="340" height="30" as="geometry" />
        </mxCell>
        <mxCell id="yNYRJrpEzRyKBh-r8Ov4-90" value="" style="endArrow=classic;html=1;rounded=0;fontSize=24;" edge="1" parent="1">
          <mxGeometry width="50" height="50" relative="1" as="geometry">
            <mxPoint x="1410" y="1210" as="sourcePoint" />
            <mxPoint x="1410" y="1280" as="targetPoint" />
          </mxGeometry>
        </mxCell>
        <mxCell id="yNYRJrpEzRyKBh-r8Ov4-91" value="Read New Password and update the DB" style="text;html=1;align=center;verticalAlign=middle;resizable=0;points=[];autosize=1;strokeColor=none;fillColor=none;fontSize=24;" vertex="1" parent="1">
          <mxGeometry x="1185" y="1290" width="450" height="30" as="geometry" />
        </mxCell>
      </root>
    </mxGraphModel>
  </diagram>
</mxfile>
